<svg width="212" height="48" viewBox="0 0 212 48" fill="none" xmlns="http://www.w3.org/2000/svg">
  <g clip-path="url(#clip0_28193_53746)">
    <path fill-rule="evenodd" clip-rule="evenodd" d="M5.28762 19.3675C5.28762 14.2626 7.31405 9.36642 10.9217 5.75466C14.5294 2.14289 19.4233 0.110928 24.5282 0.105164V7.06484C22.0939 7.06916 19.7156 7.79556 17.6943 9.1521C15.673 10.5086 14.0996 12.4343 13.1731 14.6855C12.2467 16.9366 12.0089 19.412 12.4899 21.7983C12.9709 24.1847 14.149 26.3746 15.8752 28.0911C17.6013 29.8076 19.7979 30.9734 22.1868 31.4411C24.5758 31.9087 27.0498 31.657 29.2957 30.718C31.5417 29.779 33.4585 28.1948 34.8037 26.1659C36.1489 24.137 36.862 21.7547 36.8526 19.3204H43.8159C43.8539 21.8723 43.3845 24.4063 42.4349 26.7753C41.4854 29.1443 40.0746 31.3009 38.2845 33.1201C36.4944 34.9392 34.3607 36.3846 32.0074 37.3722C29.654 38.3598 27.1279 38.87 24.5757 38.8731C22.0235 38.8762 19.4961 38.3722 17.1403 37.3904C14.7846 36.4085 12.6473 34.9684 10.8528 33.1536C9.0583 31.3389 7.64223 29.1856 6.68686 26.819C5.7315 24.4524 5.25588 21.9195 5.28762 19.3675Z" fill="#006C3F"/>
    <path d="M30.5269 8.54373C30.5276 7.57517 30.8155 6.62857 31.3542 5.82363C31.8929 5.0187 32.6582 4.39159 33.5533 4.0216C34.4484 3.65161 35.4331 3.55535 36.3829 3.74502C37.3328 3.93468 38.205 4.40173 38.8894 5.08711C39.5737 5.7725 40.0395 6.64543 40.2278 7.59553C40.416 8.54562 40.3183 9.5302 39.947 10.4248C39.5757 11.3193 38.9474 12.0837 38.1417 12.6212C37.336 13.1587 36.3889 13.4452 35.4204 13.4445C34.7771 13.4445 34.1402 13.3177 33.546 13.0713C32.9519 12.8249 32.4121 12.4638 31.9576 12.0087C31.5031 11.5535 31.1428 11.0132 30.8973 10.4186C30.6518 9.82408 30.5259 9.18697 30.5269 8.54373Z" fill="#006C3F"/>
    <path d="M16.0532 19.3675C16.0525 17.6768 16.5532 16.0239 17.4919 14.6179C18.4307 13.2118 19.7654 12.1157 21.3271 11.4682C22.8889 10.8207 24.6076 10.6509 26.2659 10.9803C27.9241 11.3097 29.4474 12.1235 30.6432 13.3187C31.8389 14.5139 32.6533 16.0369 32.9834 17.695C33.3135 19.3532 33.1445 21.0719 32.4976 22.634C31.8508 24.196 30.7553 25.5311 29.3496 26.4705C27.9439 27.4098 26.2912 27.9112 24.6006 27.9112C22.3343 27.9112 20.1608 27.0112 18.558 25.4091C16.9551 23.8069 16.0542 21.6338 16.0532 19.3675Z" fill="#50B848"/>
    <path d="M161.88 0.64522L166.23 0L163.507 12.0018C165.142 11.0992 166.592 10.2873 169.13 10.2873C173.012 10.2873 177.546 13.3974 175.951 20.6398C174.614 26.7114 170.685 31.1518 160.075 31.1518L154.898 31.1735L161.88 0.64522ZM159.73 28.0888L160.357 28.1287C162.398 28.1287 165.218 28.1287 167.77 26.4033C169.047 25.4856 170.096 24.2872 170.837 22.9003C171.578 21.5133 171.991 19.9748 172.044 18.4033C172.044 14.8364 169.887 13.4626 167.375 13.4626C165.378 13.4626 163.964 14.3253 162.71 15.1083L159.73 28.0888Z" fill="#50B848"/>
    <path fill-rule="evenodd" clip-rule="evenodd" d="M162.485 42.2764C162.739 41.1274 162.913 40.464 163.297 40.0653C163.395 39.9469 163.516 39.8505 163.654 39.7824C163.791 39.7143 163.942 39.6761 164.095 39.6702C164.269 39.675 164.438 39.7318 164.581 39.8333L165.113 38.5574C164.947 38.4758 164.766 38.4289 164.581 38.4196C164.339 38.4458 164.107 38.5243 163.899 38.6495C163.691 38.7747 163.513 38.9436 163.377 39.1446C163.264 39.2852 163.163 39.4356 163.076 39.5941L163.326 38.5972L161.992 38.7749L160.637 44.9842H161.88L162.485 42.2764Z" fill="#006C3F"/>
    <path fill-rule="evenodd" clip-rule="evenodd" d="M169.561 41.8667C169.336 42.8781 168.836 44.2337 167.524 44.2337C166.861 44.2337 166.27 43.8024 166.27 42.8128C166.27 42.3597 166.516 39.3511 168.445 39.3511C168.898 39.3511 169.699 39.5613 169.699 40.801C169.693 41.1603 169.647 41.5178 169.561 41.8667ZM170.837 42.2292C170.955 41.8039 171.018 41.3655 171.026 40.9243C171.026 39.333 170.065 38.434 168.452 38.434C165.762 38.434 164.965 41.0983 164.965 42.599C164.965 44.2736 165.864 45.1363 167.502 45.1363C169.818 45.1436 170.58 43.3058 170.837 42.2473V42.2292Z" fill="#006C3F"/>
    <path fill-rule="evenodd" clip-rule="evenodd" d="M180.24 40.1051C180.622 39.716 181.144 39.4944 181.69 39.4889C182.367 39.4889 183.089 39.9058 183.089 41.073C183.089 42.5229 181.961 44.0598 179.859 44.0598C179.678 44.0598 179.529 44.0345 179.355 44.0236L180.24 40.1051ZM180.573 38.5863L179.29 38.764L177.213 48H178.445C178.445 48 178.877 46.0825 179.134 44.9588C179.37 44.9588 179.616 44.9588 179.859 44.9588C180.511 44.9588 182.378 44.9588 183.607 43.3784C184.138 42.666 184.427 41.802 184.43 40.9135C184.43 39.3584 183.397 38.4595 182.219 38.4595C181.585 38.4774 180.972 38.6872 180.461 39.0612L180.573 38.5863Z" fill="#006C3F"/>
    <path d="M135.245 45.1327C132.392 45.1327 132.164 42.918 132.512 41.5079C132.874 39.9818 133.817 38.4123 136.311 38.4123C138.362 38.4123 139.377 39.9528 138.924 41.961C138.275 44.85 136.452 45.1327 135.245 45.1327ZM136.129 39.6955C135.56 39.6955 134.959 39.9202 134.531 41.7326C134.078 43.6538 134.951 43.8423 135.354 43.8423C136.162 43.8423 136.612 42.9578 136.862 41.8813C137.231 40.3697 136.844 39.7136 136.144 39.7136L136.129 39.6955Z" fill="#006C3F"/>
    <path d="M142.933 44.9479C142.55 45.0416 142.157 45.0915 141.762 45.0965C140.816 45.0711 139.519 44.9116 140.077 42.6461L140.722 39.9492H139.877L140.2 38.5682H141.034L141.436 36.9406L143.549 36.4295L143.024 38.5682H144.253L143.93 39.9275H142.705L142.201 42.048C142.095 42.4259 142.017 42.8112 141.969 43.2007C141.969 43.5885 142.284 43.6973 142.538 43.6973C142.797 43.7009 143.054 43.6604 143.299 43.5777L142.933 44.9479Z" fill="#006C3F"/>
    <path d="M147.283 39.0213C147.747 38.6569 148.317 38.4533 148.907 38.4413C150.179 38.4413 151.299 39.5976 150.846 41.7037C150.226 44.6035 148.001 44.995 145.996 44.995L145.315 47.9819H143.335L145.452 38.7277L147.417 38.4377L147.283 39.0213ZM146.326 43.6574C146.413 43.6737 146.502 43.6846 146.591 43.6901C148.001 43.6901 148.642 42.5482 148.827 41.3557C148.997 40.2682 148.367 39.8695 147.95 39.8695C147.635 39.886 147.337 40.0146 147.109 40.232L146.326 43.6574Z" fill="#006C3F"/>
    <path d="M172.754 38.7567L174.074 38.5827L173.222 42.3308C172.885 43.7807 173.421 44.1432 174.146 44.1432C174.723 44.1106 175.274 43.8918 175.716 43.5197L176.803 38.7386L178.094 38.5718L176.644 44.9479H175.455L175.578 44.4332C174.948 44.8641 174.206 45.101 173.443 45.1147C172.312 45.1147 171.392 44.5456 171.928 42.3272L172.754 38.7567Z" fill="#006C3F"/>
    <path d="M158.929 38.5863C157.809 38.5863 154.996 38.5863 154.195 41.9393C153.778 43.6828 154.88 45.1255 156.323 45.1328C157.011 45.1343 157.674 44.8753 158.179 44.4078L158.049 44.9805C157.885 45.6402 157.516 46.8944 156.069 46.8944C155.727 46.8842 155.391 46.8058 155.08 46.6639C154.769 46.522 154.489 46.3194 154.257 46.068L153.699 46.9053C154.015 47.2083 154.391 47.4434 154.801 47.5961C155.212 47.7488 155.65 47.816 156.087 47.7934C156.513 47.8174 156.939 47.7495 157.336 47.5944C157.733 47.4393 158.093 47.2006 158.389 46.8944C158.806 46.3298 159.082 45.6735 159.194 44.9805L160.662 38.6008L158.929 38.5863ZM158.346 43.4581C158.152 43.6732 157.918 43.848 157.657 43.9725C157.396 44.0969 157.112 44.1684 156.823 44.183C155.714 44.183 155.247 43.0485 155.522 41.9393C155.656 41.2175 156.052 40.5707 156.634 40.1237C157.217 39.6766 157.944 39.4608 158.676 39.5179H159.263L158.346 43.4581Z" fill="#006C3F"/>
    <path d="M70.2081 16.4495C70.1501 16.7866 66.8551 31.1735 66.8551 31.1735H60.537L63.6472 17.439C63.9045 16.2972 62.7591 15.2641 61.3925 15.2641C60.2704 15.3355 59.2087 15.7972 58.3911 16.5691L55.0853 31.1735H48.7563L53.2801 11.2805C56.296 10.8346 58.46 10.7549 59.765 10.4975H59.7831L59.243 12.9116C61.03 11.4291 63.4514 10.2872 65.7677 10.2872C66.663 10.2617 67.5435 10.5196 68.2836 11.0241C69.0237 11.5285 69.5856 12.2538 69.8891 13.0965C70.3128 14.1609 70.4235 15.3242 70.2081 16.4495Z" fill="#006C3F"/>
    <path d="M129.427 31.1736H123.065L123.319 29.5424C122.76 30.062 122.123 30.4902 121.43 30.8111C120.205 31.3267 118.884 31.5739 117.555 31.536C115.279 31.536 113.311 30.7096 112.212 28.7485C111.479 27.3308 111.114 25.7516 111.15 24.1559C111.15 20.5311 112.644 16.5002 115.431 14.0064C119.107 10.6316 123.457 10.5519 126.904 10.512H133.882L129.427 31.1736ZM126.462 14.9017C125.463 14.817 124.458 14.8707 123.475 15.0612C119.237 16.1486 117.98 21.1038 117.98 23.4599C117.98 26.8745 119.984 27.3457 120.927 27.3457C122.376 27.3457 123.203 26.6788 123.91 26.0879L126.462 14.9017Z" fill="#006C3F"/>
    <path d="M80.3755 31.5541C71.3388 31.5541 70.6211 24.5328 71.7158 20.1214C72.9156 15.2786 75.8554 10.3126 83.7611 10.3126C90.2604 10.3126 93.4757 15.1916 92.0402 21.5496C89.985 30.6624 84.2034 31.5541 80.3755 31.5541ZM83.1775 14.3833C81.3651 14.3833 79.4693 15.1083 78.1028 20.8391C76.6528 26.9288 79.4403 27.5197 80.709 27.5197C83.2718 27.5197 84.6963 24.7213 85.4938 21.3176C86.632 16.4603 85.443 14.3833 83.1775 14.3833Z" fill="#006C3F"/>
    <path d="M202.05 10.512C198.233 10.454 195.341 12.8718 194.946 13.2198C194.221 11.2007 192.484 10.512 190.342 10.512C187.954 10.5353 185.642 11.3556 183.774 12.8428L184.3 10.6316L180.367 11.2551L175.799 31.1917H179.823L183.361 15.7789C183.361 15.7789 185.383 13.7744 188.171 13.7744C190.491 13.7744 191.705 14.9778 190.625 19.643L187.979 31.1735H192.104L194.754 19.5741C195.134 17.9429 195.5 16.348 195.776 15.1699C196.97 14.2984 198.401 13.8116 199.879 13.7744C202.199 13.7744 203.413 14.9778 202.337 19.643L199.683 31.1735H203.808L206.458 19.5741C208.176 12.4803 205.682 10.5736 202.05 10.512Z" fill="#50B848"/>
    <path d="M146.928 19.1717L153.021 31.1735H148.309L142.697 19.8423L140.109 31.1735H135.883L138.239 20.85L142.893 0.641595L147.308 0L142.995 18.5483L151.528 10.512H156.24L146.928 19.1717Z" fill="#50B848"/>
    <path d="M102.828 31.1736H96.2704L93.9287 10.512H100.569L101.316 24.8845L108.073 10.512H113.847L102.828 31.1736Z" fill="#006C3F"/>
  </g>
  <defs>
    <clipPath id="clip0_28193_53746">
      <rect width="211.714" height="48" fill="white" transform="translate(0.143066)"/>
    </clipPath>
  </defs>
</svg>
